<?xml version="1.0" encoding="utf-8"?>
<!-- Generator: Adobe Illustrator 23.1.0, SVG Export Plug-In . SVG Version: 6.00 Build 0)  -->
<svg version="1.1" id="Layer_1" focusable="false" xmlns="http://www.w3.org/2000/svg" xmlns:xlink="http://www.w3.org/1999/xlink"
	 x="0px" y="0px" viewBox="0 0 448 512" style="enable-background:new 0 0 448 512;" xml:space="preserve">
<style type="text/css">
	.st0{fill:#323B4A;}
</style>
<path class="st0" d="M400,32H48C21.5,32,0,53.5,0,80v352c0,26.5,21.5,48,48,48h352c26.5,0,48-21.5,48-48V80
	C448,53.5,426.5,32,400,32z M178.1,262.1c-90.7-65.8-89.8-66-114.1-84.9V152c0-13.3,10.7-24,24-24h272c13.3,0,24,10.7,24,24v25.2
	c-24.4,19-23.4,19.1-114.1,84.9c-10.5,7.7-31.4,26.1-45.9,25.9C209.5,288.2,188.6,269.8,178.1,262.1z M384,217.8V360
	c0,13.3-10.7,24-24,24H88c-13.3,0-24-10.7-24-24V217.8c14,10.8,33.3,25.2,95.3,70.2c14.2,10.3,38,32.1,64.7,32
	c26.9,0.1,51-22,64.7-32C350.7,243,370,228.6,384,217.8z"/>
</svg>
